<svg width="40" height="40" viewBox="0 0 40 40" fill="none" xmlns="http://www.w3.org/2000/svg">
<g clip-path="url(#clip0_4_962)">
<path d="M30.1458 13.2061H9.85437C9.40299 13.2061 9.03711 13.5719 9.03711 14.0233V31.0394C9.03711 31.4907 9.40299 31.8566 9.85437 31.8566H13.4719V37.5911C13.4719 38.9216 14.5504 40.0003 15.881 40.0003C17.2115 40.0003 18.2902 38.9217 18.2902 37.5911V31.8566H21.6598V37.5911C21.6598 38.9216 22.7384 40.0003 24.069 40.0003C25.3995 40.0003 26.4782 38.9217 26.4782 37.5911V31.8566H30.1459C30.5973 31.8566 30.9632 31.4907 30.9632 31.0394V14.0233C30.9631 13.5719 30.5972 13.2061 30.1458 13.2061Z" fill="#CF1257"/>
<path d="M5.60168 13.2017C4.27118 13.2017 3.1925 14.2802 3.1925 15.6108V25.396C3.1925 26.7265 4.27108 27.8051 5.60168 27.8051C6.93218 27.8051 8.01086 26.7266 8.01086 25.396V15.6108C8.01076 14.2803 6.93218 13.2017 5.60168 13.2017Z" fill="#CF1257"/>
<path d="M34.3984 13.2017C33.0679 13.2017 31.9893 14.2802 31.9893 15.6108V25.396C31.9893 26.7265 33.0678 27.8051 34.3984 27.8051C35.7289 27.8051 36.8076 26.7266 36.8076 25.396V15.6108C36.8076 14.2803 35.729 13.2017 34.3984 13.2017Z" fill="#CF1257"/>
<path d="M10.0185 12.0124H29.9337C30.4532 12.0124 30.8407 11.5338 30.734 11.0253C30.0752 7.88564 28.0763 5.23974 25.3639 3.71124L27.0663 0.639426C27.1816 0.431456 27.1064 0.169364 26.8985 0.054148C26.69 -0.0613585 26.4283 0.0140644 26.3131 0.222034L24.5977 3.31699C23.1928 2.665 21.627 2.30086 19.9761 2.30086C18.3251 2.30086 16.7594 2.665 15.3544 3.31699L13.639 0.221937C13.5237 0.0138708 13.2616 -0.0611648 13.0538 0.0540511C12.8458 0.169267 12.7707 0.431359 12.8859 0.639329L14.5884 3.71114C11.8759 5.23974 9.877 7.88554 9.21823 11.0253C9.11144 11.5338 9.49891 12.0124 10.0185 12.0124ZM25.9185 7.43446C25.9185 7.94586 25.504 8.36054 24.9925 8.36054C24.4811 8.36054 24.0664 7.94596 24.0664 7.43446C24.0664 6.92305 24.481 6.50837 24.9925 6.50837C25.504 6.50837 25.9185 6.92305 25.9185 7.43446ZM14.9596 6.50837C15.471 6.50837 15.8857 6.92296 15.8857 7.43446C15.8857 7.94586 15.4711 8.36054 14.9596 8.36054C14.4482 8.36054 14.0335 7.94596 14.0335 7.43446C14.0335 6.92305 14.4481 6.50837 14.9596 6.50837Z" fill="#CF1257"/>
</g>
<defs>
<clipPath id="clip0_4_962">
<rect width="40" height="40" fill="white"/>
</clipPath>
</defs>
</svg>
