<svg width="40" height="40" viewBox="0 0 40 40" fill="none" xmlns="http://www.w3.org/2000/svg">
<g clip-path="url(#clip0_4_1010)">
<path d="M30.9179 21.2531C30.8674 16.1874 35.0491 13.7579 35.2359 13.6372C32.8863 10.199 29.2261 9.72795 27.9218 9.6735C24.8069 9.35811 21.8439 11.5074 20.263 11.5074C18.6861 11.5074 16.2467 9.72014 13.6633 9.76709C10.2682 9.81756 7.13763 11.7412 5.38943 14.7819C1.86193 20.903 4.48607 29.971 7.9242 34.9353C9.6042 37.3653 11.6075 40.0945 14.2377 39.997C16.7706 39.8959 17.7284 38.358 20.7907 38.358C23.8529 38.358 24.7137 39.997 27.3941 39.9467C30.1197 39.8961 31.8465 37.4702 33.515 35.0328C35.4442 32.2137 36.2386 29.4844 36.2854 29.3444C36.2249 29.3167 30.9705 27.3038 30.9179 21.2531ZM25.8813 6.38709C27.2773 4.69342 28.2196 2.34365 27.9626 -0.000488281C25.9517 0.0813867 23.5143 1.33897 22.0715 3.02881C20.777 4.52787 19.6438 6.92045 19.9475 9.21771C22.1923 9.39287 24.4838 8.07693 25.8813 6.38709Z" fill="#CF1257"/>
</g>
<defs>
<clipPath id="clip0_4_1010">
<rect width="40" height="40" fill="white" transform="translate(0 -0.000488281)"/>
</clipPath>
</defs>
</svg>
