<svg width="80" height="80" viewBox="0 0 80 80" fill="none" xmlns="http://www.w3.org/2000/svg">
<path d="M68.8172 16.6624H54.4344V8.28388C54.4344 6.38345 52.894 4.84302 50.9935 4.84302H28.9892C27.0888 4.84302 25.5484 6.38345 25.5484 8.28388V16.6624H11.1828C6.02151 16.6624 0 19.4839 0 27.4323V64.3871C0 72.3355 6.02151 75.157 11.1828 75.157H68.8172C77.0753 75.157 80 69.3592 80 64.3871V27.4495C80 19.4839 73.9785 16.6624 68.8172 16.6624ZM29.0065 8.30108L50.9935 8.28388V16.6624H29.0065V8.30108ZM68.8172 71.6989H11.1828C8.86022 71.6989 3.44086 70.9764 3.44086 64.3699V52.2237H29.2473C29.2404 52.3497 29.2404 52.4761 29.2473 52.6022V57.9183C29.2471 60.0278 30.957 61.7379 33.0662 61.7381C33.0837 61.7381 33.1009 61.7379 33.1183 61.7376H38.2796V65.1785C38.2796 66.1286 39.0499 66.8989 40 66.8989C40.9501 66.8989 41.7204 66.1286 41.7204 65.1785V61.7376H46.8817C48.9912 61.7376 50.7011 60.0278 50.7011 57.9183V52.6022C50.708 52.4761 50.708 52.3497 50.7011 52.2237H76.5075L76.5591 64.3699C76.5591 66.5721 75.8022 71.6989 68.8172 71.6989ZM40 53.5484C39.0499 53.5484 38.2796 54.3187 38.2796 55.2688V58.2968H33.1183C32.9092 58.2968 32.7398 58.1273 32.7398 57.9183V52.6022C32.7398 52.3931 32.9092 52.2237 33.1183 52.2237H46.8817C47.0908 52.2237 47.2602 52.3931 47.2602 52.6022V57.9183C47.2602 58.1273 47.0908 58.2968 46.8817 58.2968H41.7204V55.2688C41.7204 54.3187 40.9501 53.5484 40 53.5484ZM76.5591 48.7828H3.44086V27.4495C3.44086 20.8258 8.86022 20.1204 11.1828 20.1204H68.8172C71.1398 20.1204 76.5591 20.8258 76.5591 27.4495V48.7828Z" fill="#CF1257"/>
</svg>
