<svg width="80" height="80" viewBox="0 0 80 80" fill="none" xmlns="http://www.w3.org/2000/svg">
<path d="M40 0C17.9086 0 0 17.9086 0 40C0 62.0914 17.9086 80 40 80C62.0914 80 80 62.0914 80 40C79.9717 17.9204 62.0796 0.028314 40 0ZM41.716 76.4822V69.4466C41.716 68.4989 40.9477 67.7306 40 67.7306C39.0523 67.7306 38.284 68.4989 38.284 69.4466V76.4822C19.4678 75.5839 4.41613 60.5322 3.5178 41.716H10.5534C11.5011 41.716 12.2694 40.9477 12.2694 40C12.2694 39.0523 11.5011 38.284 10.5534 38.284H3.5178C4.41613 19.4678 19.4678 4.41613 38.284 3.5178V10.5534C38.284 11.5011 39.0523 12.2694 40 12.2694C40.9477 12.2694 41.716 11.5011 41.716 10.5534V3.5178C60.5322 4.41613 75.5839 19.4678 76.4822 38.284H69.4466C68.4989 38.284 67.7306 39.0523 67.7306 40C67.7306 40.9477 68.4989 41.716 69.4466 41.716H69.4638H76.4994C75.6004 60.5384 60.5388 75.5925 41.716 76.4822Z" fill="#CF1257"/>
<path d="M58.1039 55.9588L41.7161 39.2965V21.982C41.7161 21.0343 40.9477 20.266 40.0001 20.266C39.0524 20.266 38.2841 21.0343 38.2841 21.982V40C38.286 40.4502 38.4647 40.8816 38.7817 41.2012L55.65 58.3612C56.3134 59.0388 57.4005 59.0504 58.0781 58.387C58.7557 57.7235 58.7673 56.6364 58.1039 55.9588Z" fill="#CF1257"/>
</svg>
