<svg width="80" height="80" viewBox="0 0 80 80" fill="none" xmlns="http://www.w3.org/2000/svg">
<g clip-path="url(#clip0_48_33)">
<path d="M66.1952 24.9119L79.5422 11.5649C80.1483 10.9645 80.1531 9.98649 79.5528 9.38016C79.2753 9.09997 78.9013 8.93642 78.5072 8.92329L78.5535 9.01598L71.293 8.76881L71.0458 1.50828C71.0171 0.655557 70.3026 -0.0123731 69.4499 0.0163986C69.0557 0.0297225 68.6815 0.193084 68.4042 0.473271L55.0727 13.743C54.7718 14.0458 54.6096 14.4596 54.6247 14.8862V16.431C38.7741 5.51181 17.0733 9.50953 6.15409 25.3599C-4.76509 41.2102 -0.767553 62.9113 15.083 73.8305C30.9333 84.7496 52.6344 80.7519 63.5536 64.9016C71.7547 52.9968 71.7547 37.2648 63.5536 25.3599H65.0984C65.5089 25.3622 65.9036 25.201 66.1952 24.9119ZM66.6586 45.1487C66.6818 62.7068 52.4668 76.9593 34.9087 76.9824C17.3506 77.0056 3.0981 62.7906 3.07493 45.2325C3.05176 27.6744 17.2667 13.4219 34.8249 13.3987C42.0949 13.3891 49.1484 15.8716 54.81 20.432L54.8873 23.0118L48.7081 29.191C39.918 21.4869 26.5469 22.3674 18.8428 31.1575C11.1387 39.9476 12.0193 53.3187 20.8093 61.0228C29.5994 68.7269 42.9706 67.8463 50.6746 59.0563C57.5965 51.1585 57.6801 39.3797 50.8708 31.3846L57.05 25.2054L59.5989 25.2981C64.1421 30.919 66.6323 37.9214 66.6586 45.1487ZM33.8781 46.1837C34.4806 46.7827 35.4538 46.7827 36.0563 46.1837L39.1458 43.0941C39.4469 43.7155 39.6052 44.3964 39.6093 45.0869C39.6093 47.6464 37.5344 49.7213 34.9749 49.7213C32.4154 49.7213 30.3405 47.6464 30.3405 45.0869C30.3405 42.5274 32.4154 40.4525 34.9749 40.4525C35.6654 40.4566 36.3463 40.6149 36.9677 40.9159L33.8781 44.0055C33.2791 44.608 33.2791 45.5812 33.8781 46.1837ZM39.2231 38.6451C35.6658 36.2908 30.8735 37.266 28.5192 40.8233C26.1649 44.3805 27.1401 49.1729 30.6974 51.5271C34.2546 53.8814 39.047 52.9062 41.4012 49.349C43.1117 46.7643 43.1117 43.4077 41.4012 40.8233L48.7236 33.5009C55.1428 41.1229 54.1674 52.5056 46.5454 58.9248C38.9234 65.344 27.5408 64.3686 21.1216 56.7466C14.7024 49.1246 15.6777 37.742 23.2997 31.3228C30.0161 25.6665 39.829 25.6665 46.5454 31.3228L39.2231 38.6451ZM58.0078 22.054L57.7915 15.4732L68.1416 5.1231L68.3115 10.2673C68.3115 11.1204 69.0032 11.8121 69.8563 11.8121L75.0005 11.982L64.5886 22.2703L58.0078 22.054Z" fill="#CF1257"/>
</g>
<defs>
<clipPath id="clip0_48_33">
<rect width="80" height="80" fill="white"/>
</clipPath>
</defs>
</svg>
