<svg width="40" height="40" viewBox="0 0 40 40" fill="none" xmlns="http://www.w3.org/2000/svg">
<path d="M36.0211 32.1167C34.8481 31.6363 34.3463 30.9988 34.3949 30.0475C34.4448 28.9372 33.8149 28.124 33.5158 27.8027C33.6965 27.1123 34.2246 24.7241 33.5163 22.6497C32.7551 20.4294 30.4312 17.0383 28.0332 13.7049C27.0516 12.336 27.0052 10.8479 26.9515 9.12491C26.9001 7.48149 26.8422 5.61866 25.9257 3.54783C24.9292 1.29299 22.9297 0 20.4396 0C18.9583 0 17.4378 0.462954 16.2676 1.27004C13.8716 2.92369 14.1883 6.52909 14.3979 8.91481C14.4266 9.2415 14.4536 9.5501 14.4693 9.81357C14.6089 12.1501 14.4819 13.3816 14.3159 13.7559C14.2085 14.0005 13.6797 14.6966 13.1201 15.4337C12.5413 16.1959 11.8852 17.0599 11.3474 17.865C10.7056 18.8338 10.1876 20.3146 9.68662 21.7466C9.32006 22.7945 8.97383 23.7843 8.63678 24.3758C7.99795 25.5136 8.1569 26.5746 8.28963 27.065C8.04779 27.233 7.69841 27.5637 7.40346 28.1872C7.04699 28.9479 6.32371 29.3567 4.8197 29.6458C4.12855 29.7872 3.65195 30.0778 3.40277 30.5096C3.04015 31.1379 3.23766 31.9274 3.41785 32.467C3.68409 33.2602 3.51818 33.7622 3.21654 34.6737C3.14703 34.884 3.06821 35.1222 2.98834 35.3849C2.86257 35.7995 2.90795 36.1764 3.1229 36.5052C3.6909 37.3735 5.34836 37.6797 7.0546 37.8812C8.07336 38.0021 9.18839 38.4096 10.2668 38.8038C11.3235 39.1899 12.4161 39.5892 13.4093 39.7104C13.5602 39.7294 13.7097 39.739 13.8539 39.739C15.3534 39.739 16.0309 38.744 16.2457 38.3352C16.7844 38.2253 18.6421 37.8733 20.5567 37.8261C22.4683 37.7715 24.3179 38.149 24.8419 38.2663C25.0066 38.5816 25.4408 39.3018 26.133 39.6728C26.5135 39.8808 27.0429 40 27.5852 40C27.5854 40 27.5852 40 27.5854 40C28.1645 40 29.2663 39.8631 30.1383 38.9457C31.0081 38.024 33.1812 36.8473 34.7681 35.9882C35.1222 35.7964 35.4535 35.617 35.744 35.4551C36.6354 34.9609 37.1218 34.2548 37.0784 33.5179C37.0422 32.9058 36.6371 32.3689 36.0211 32.1167ZM16.2872 31.9392C16.1762 31.1576 15.1707 30.3824 14.0063 29.4848C13.0541 28.7507 11.9749 27.9189 11.6776 27.2143C11.0632 25.761 11.5475 23.2054 12.3919 21.8895C12.8093 21.2306 13.1501 20.2313 13.4798 19.265C13.8358 18.2216 14.2039 17.1428 14.6156 16.6705C15.2675 15.9332 15.87 14.4986 15.9768 13.368C16.5873 13.9508 17.5343 14.6903 18.4092 14.6903C18.5439 14.6903 18.6746 14.6728 18.7996 14.6375C19.3982 14.4646 20.2786 13.9559 21.13 13.4641C21.864 13.04 22.7692 12.5169 23.1098 12.4693C23.6938 13.3079 27.0873 20.8176 27.434 23.2293C27.7084 25.1375 27.4185 26.7149 27.2728 27.3328C27.1556 27.3168 27.0158 27.3038 26.8689 27.3038C25.9237 27.3038 25.6735 27.8197 25.6083 28.1278C25.4407 28.9282 25.423 31.4876 25.4212 32.0626C25.0794 32.4969 23.351 34.5417 20.8695 34.9093C19.8588 35.0562 18.9149 35.1307 18.0643 35.1307C17.3372 35.1307 16.8732 35.0746 16.6805 35.0453L15.4335 33.6186C15.9252 33.3758 16.4168 32.8636 16.2872 31.9392ZM17.8695 8.41304C17.8305 8.42983 17.7923 8.44779 17.7546 8.46694C17.7508 8.38248 17.742 8.29684 17.7285 8.21094C17.5924 7.42733 17.0728 6.85854 16.4932 6.85854C16.4503 6.85854 16.4072 6.86182 16.3598 6.86903C16.0151 6.92647 15.7446 7.18549 15.5964 7.55271C15.7264 6.74693 16.1829 6.15034 16.7246 6.15034C17.3606 6.15034 17.898 7.00752 17.898 8.02209C17.898 8.14996 17.8886 8.27717 17.8695 8.41304ZM22.812 9.01724C22.8702 8.8318 22.9017 8.63114 22.9017 8.42288C22.9017 7.503 22.3181 6.78234 21.573 6.78234C20.8449 6.78234 20.2525 7.51821 20.2525 8.42288C20.2525 8.48452 20.2555 8.54629 20.2613 8.60793C20.2227 8.59311 20.1851 8.57868 20.1483 8.56478C20.0645 8.31101 20.0222 8.04622 20.0222 7.77592C20.0222 6.67598 20.7251 5.78102 21.5894 5.78102C22.4535 5.78102 23.1566 6.67598 23.1566 7.77592C23.1566 8.2335 23.0303 8.67022 22.812 9.01724ZM22.1747 11.1581C22.1622 11.2137 22.1358 11.2384 21.8428 11.3908C21.6948 11.4677 21.5107 11.5636 21.2803 11.7039L21.1263 11.7972C20.5075 12.1723 19.0588 13.0508 18.6654 13.1024C18.3983 13.1383 18.233 13.0347 17.8615 12.7822C17.7777 12.7252 17.6885 12.6646 17.5934 12.6036C16.9237 12.1641 16.4928 11.6801 16.4442 11.4908C16.6625 11.322 17.2038 10.8996 17.4809 10.6495C18.0434 10.1265 18.6094 9.77501 18.8896 9.77501C18.9044 9.77501 18.9178 9.77606 18.9317 9.77869C19.2609 9.83679 20.0728 10.1609 20.6658 10.3974C20.9399 10.5068 21.1767 10.6013 21.3432 10.6611C21.868 10.8413 22.1415 11.0718 22.1747 11.1581ZM26.8891 35.6002C27.1851 34.265 27.5261 32.4486 27.4709 31.3778C27.4582 31.1345 27.4366 30.8697 27.4158 30.6137C27.3768 30.135 27.319 29.4235 27.3787 29.2125C27.3905 29.207 27.4036 29.2023 27.4182 29.1982C27.4206 29.8104 27.5536 31.0315 28.5302 31.4574C28.8212 31.5843 29.1538 31.6486 29.5186 31.6486C30.4969 31.6486 31.5823 31.1687 32.0268 30.7241C32.2886 30.4624 32.5088 30.1421 32.663 29.8885C32.6968 29.9872 32.7175 30.1163 32.7066 30.2826C32.6485 31.1855 33.0873 32.3834 33.9225 32.8249L34.044 32.8887C34.3415 33.0448 35.1315 33.4596 35.1442 33.6564C35.1441 33.6565 35.1376 33.6796 35.0935 33.7205C34.8956 33.9013 34.1991 34.257 33.5255 34.601C32.3306 35.2111 30.9762 35.9027 30.3679 36.5424C29.5115 37.4437 28.5429 38.049 27.958 38.049C27.8875 38.049 27.8234 38.0401 27.7664 38.022C27.1311 37.824 26.6082 36.9074 26.8891 35.6002ZM5.23505 32.1939C5.17026 31.8907 5.11911 31.6514 5.17406 31.4195C5.21393 31.2477 6.06207 31.0636 6.4243 30.985C6.93355 30.8744 7.46024 30.7602 7.80464 30.5512C8.27035 30.2691 8.52255 29.7488 8.74497 29.2898C8.90602 28.9578 9.07232 28.6146 9.27022 28.502C9.28137 28.4954 9.29842 28.4878 9.33095 28.4878C9.7017 28.4878 10.4797 29.2672 10.9279 29.9648C11.0416 30.1407 11.2523 30.4931 11.4959 30.9011C12.2247 32.1205 13.2226 33.7907 13.7438 34.3504C14.2135 34.8536 14.9737 35.8211 14.7867 36.6509C14.6498 37.2947 13.9209 37.8182 13.7489 37.934C13.6865 37.9482 13.6093 37.9554 13.5184 37.9554C12.5209 37.9554 10.5463 37.1255 9.48544 36.6796L9.32845 36.6136C8.73605 36.3652 7.76897 36.2088 6.83375 36.0574C6.08961 35.9369 5.07059 35.772 4.90167 35.6231C4.76475 35.4695 4.92357 34.9702 5.06364 34.5297C5.16449 34.2131 5.26862 33.8857 5.32567 33.543C5.40659 32.9964 5.31138 32.5514 5.23505 32.1939Z" fill="#CF1257"/>
</svg>
