<svg width="40" height="40" viewBox="0 0 40 40" fill="none" xmlns="http://www.w3.org/2000/svg">
<g clip-path="url(#clip0_4_1031)">
<path d="M36.0211 32.1162C34.8481 31.6358 34.3463 30.9983 34.3949 30.0471C34.4448 28.9368 33.8149 28.1235 33.5158 27.8022C33.6965 27.1118 34.2246 24.7236 33.5163 22.6492C32.7551 20.4289 30.4312 17.0378 28.0332 13.7044C27.0516 12.3355 27.0052 10.8475 26.9515 9.12443C26.9001 7.481 26.8422 5.61817 25.9257 3.54734C24.9292 1.2925 22.9297 -0.000488281 20.4396 -0.000488281C18.9583 -0.000488281 17.4378 0.462466 16.2676 1.26955C13.8716 2.9232 14.1883 6.5286 14.3979 8.91432C14.4266 9.24102 14.4536 9.54961 14.4693 9.81309C14.6089 12.1496 14.4819 13.3811 14.3159 13.7554C14.2085 14 13.6797 14.6961 13.1201 15.4332C12.5413 16.1954 11.8852 17.0594 11.3474 17.8645C10.7056 18.8333 10.1876 20.3141 9.68662 21.7461C9.32006 22.794 8.97383 23.7838 8.63678 24.3753C7.99795 25.5131 8.1569 26.5741 8.28963 27.0645C8.04779 27.2325 7.69841 27.5632 7.40346 28.1867C7.04699 28.9474 6.32371 29.3562 4.8197 29.6453C4.12855 29.7867 3.65195 30.0774 3.40277 30.5091C3.04015 31.1374 3.23766 31.9269 3.41785 32.4665C3.68409 33.2597 3.51818 33.7617 3.21654 34.6732C3.14703 34.8835 3.06821 35.1217 2.98834 35.3844C2.86257 35.799 2.90795 36.1759 3.1229 36.5047C3.6909 37.373 5.34836 37.6792 7.0546 37.8807C8.07336 38.0016 9.18839 38.4091 10.2668 38.8033C11.3235 39.1894 12.4161 39.5888 13.4093 39.7099C13.5602 39.729 13.7097 39.7385 13.8539 39.7385C15.3534 39.7385 16.0309 38.7435 16.2457 38.3347C16.7844 38.2248 18.6421 37.8728 20.5567 37.8256C22.4684 37.771 24.3179 38.1485 24.8419 38.2659C25.0066 38.5811 25.4408 39.3013 26.133 39.6723C26.5135 39.8803 27.0429 39.9995 27.5852 39.9995C27.5854 39.9995 27.5852 39.9995 27.5854 39.9995C28.1645 39.9995 29.2663 39.8626 30.1383 38.9452C31.0081 38.0235 33.1812 36.8468 34.7681 35.9877C35.1222 35.7959 35.4535 35.6165 35.744 35.4546C36.6354 34.9604 37.1218 34.2543 37.0784 33.5174C37.0422 32.9053 36.6371 32.3684 36.0211 32.1162ZM16.2872 31.9387C16.1762 31.1571 15.1707 30.3819 14.0063 29.4843C13.0541 28.7503 11.9749 27.9184 11.6776 27.2139C11.0632 25.7605 11.5475 23.2049 12.392 21.889C12.8093 21.2301 13.1501 20.2309 13.4798 19.2646C13.8358 18.2211 14.2039 17.1423 14.6156 16.67C15.2675 15.9327 15.87 14.4981 15.9768 13.3675C16.5873 13.9503 17.5343 14.6898 18.4092 14.6898C18.5439 14.6898 18.6746 14.6723 18.7996 14.637C19.3982 14.4641 20.2786 13.9554 21.13 13.4636C21.864 13.0395 22.7692 12.5164 23.1098 12.4688C23.6938 13.3074 27.0873 20.8171 27.434 23.2288C27.7084 25.137 27.4185 26.7144 27.2728 27.3323C27.1556 27.3163 27.0158 27.3033 26.8689 27.3033C25.9237 27.3033 25.6735 27.8192 25.6083 28.1273C25.4407 28.9277 25.423 31.4871 25.4212 32.0622C25.0794 32.4964 23.351 34.5413 20.8695 34.9089C19.8588 35.0557 18.9149 35.1302 18.0643 35.1302C17.3372 35.1302 16.8732 35.0741 16.6805 35.0449L15.4335 33.6181C15.9252 33.3753 16.4168 32.8631 16.2872 31.9387ZM17.8695 8.41255C17.8305 8.42934 17.7923 8.44731 17.7546 8.46645C17.7508 8.38199 17.742 8.29635 17.7285 8.21045C17.5924 7.42684 17.0728 6.85805 16.4932 6.85805C16.4503 6.85805 16.4072 6.86133 16.3598 6.86854C16.0151 6.92598 15.7446 7.185 15.5964 7.55222C15.7264 6.74644 16.1829 6.14985 16.7246 6.14985C17.3606 6.14985 17.898 7.00703 17.898 8.0216C17.898 8.14947 17.8886 8.27668 17.8695 8.41255ZM22.812 9.01675C22.8702 8.83131 22.9017 8.63065 22.9017 8.42239C22.9017 7.50251 22.3181 6.78185 21.573 6.78185C20.8449 6.78185 20.2525 7.51773 20.2525 8.42239C20.2525 8.48403 20.2555 8.5458 20.2613 8.60744C20.2227 8.59262 20.1851 8.57819 20.1483 8.56429C20.0645 8.31052 20.0222 8.04573 20.0222 7.77543C20.0222 6.67549 20.7251 5.78053 21.5894 5.78053C22.4535 5.78053 23.1566 6.67549 23.1566 7.77543C23.1566 8.23301 23.0303 8.66973 22.812 9.01675ZM22.1747 11.1576C22.1622 11.2132 22.1358 11.2379 21.8428 11.3903C21.6948 11.4673 21.5107 11.5631 21.2803 11.7035L21.1263 11.7967C20.5075 12.1718 19.0588 13.0504 18.6654 13.1019C18.3983 13.1378 18.233 13.0342 17.8615 12.7818C17.7777 12.7247 17.6885 12.6641 17.5934 12.6031C16.9237 12.1637 16.4928 11.6796 16.4442 11.4903C16.6625 11.3216 17.2038 10.8991 17.4809 10.649C18.0434 10.126 18.6094 9.77453 18.8896 9.77453C18.9044 9.77453 18.9178 9.77558 18.9317 9.7782C19.2609 9.8363 20.0728 10.1604 20.6658 10.397C20.9399 10.5063 21.1767 10.6008 21.3432 10.6606C21.868 10.8408 22.1415 11.0713 22.1747 11.1576ZM26.8891 35.5997C27.1851 34.2645 27.5261 32.4481 27.4709 31.3773C27.4582 31.134 27.4366 30.8692 27.4158 30.6132C27.3768 30.1345 27.319 29.4231 27.3787 29.212C27.3905 29.2065 27.4036 29.2018 27.4182 29.1977C27.4206 29.8099 27.5536 31.0311 28.5302 31.4569C28.8212 31.5839 29.1538 31.6481 29.5186 31.6481C30.4969 31.6481 31.5823 31.1682 32.0268 30.7237C32.2886 30.4619 32.5088 30.1416 32.663 29.888C32.6968 29.9867 32.7175 30.1158 32.7066 30.2821C32.6485 31.185 33.0873 32.3829 33.9225 32.8244L34.044 32.8883C34.3415 33.0443 35.1315 33.4591 35.1442 33.6559C35.1441 33.656 35.1376 33.6791 35.0935 33.72C34.8956 33.9009 34.1991 34.2565 33.5255 34.6005C32.3306 35.2106 30.9762 35.9022 30.3679 36.5419C29.5115 37.4432 28.5429 38.0486 27.958 38.0486C27.8875 38.0486 27.8234 38.0396 27.7664 38.0215C27.1311 37.8235 26.6082 36.9069 26.8891 35.5997ZM5.23505 32.1934C5.17026 31.8902 5.11911 31.6509 5.17406 31.419C5.21393 31.2472 6.06207 31.0631 6.4243 30.9845C6.93355 30.8739 7.46024 30.7597 7.80464 30.5507C8.27035 30.2686 8.52255 29.7483 8.74497 29.2893C8.90602 28.9573 9.07232 28.6141 9.27022 28.5015C9.28137 28.4949 9.29842 28.4873 9.33095 28.4873C9.7017 28.4873 10.4797 29.2667 10.9279 29.9643C11.0416 30.1402 11.2523 30.4926 11.4959 30.9006C12.2247 32.12 13.2226 33.7902 13.7438 34.3499C14.2135 34.8531 14.9737 35.8206 14.7867 36.6504C14.6498 37.2942 13.9209 37.8177 13.7489 37.9335C13.6865 37.9477 13.6093 37.9549 13.5184 37.9549C12.5209 37.9549 10.5463 37.125 9.48544 36.6791L9.32845 36.6131C8.73606 36.3647 7.76897 36.2083 6.83375 36.0569C6.08961 35.9364 5.07059 35.7716 4.90167 35.6226C4.76475 35.469 4.92357 34.9697 5.06364 34.5292C5.16449 34.2126 5.26862 33.8852 5.32567 33.5426C5.40659 32.9959 5.31138 32.5509 5.23505 32.1934Z" fill="#CF1257"/>
</g>
<defs>
<clipPath id="clip0_4_1031">
<rect width="40" height="40" fill="white" transform="translate(0 -0.000488281)"/>
</clipPath>
</defs>
</svg>
