<svg width="30" height="30" viewBox="0 0 30 30" fill="none" xmlns="http://www.w3.org/2000/svg">
<g clip-path="url(#clip0_4_1229)">
<path d="M26.531 8.34192C25.7117 2.41319 19.8035 -0.605551 13.4998 0.101286C8.51605 0.660033 3.54728 4.68944 3.34102 10.4513C3.21538 13.9687 4.21291 16.6069 7.55978 17.3494C9.00917 14.7844 7.09294 14.2238 6.79293 12.3657C5.56479 4.7719 15.5529 -0.414347 20.7842 4.89193C24.4067 8.56693 22.0198 19.8657 16.1848 18.6901C10.5954 17.5688 18.9223 8.57445 14.4617 6.81007C10.8354 5.37382 8.9098 11.1976 10.6292 14.0926C9.6204 19.0707 7.44919 23.7582 8.32854 30.0001C11.1785 27.9301 12.1404 23.972 12.9279 19.8414C14.3604 20.7132 15.1273 21.6151 16.9536 21.7557C23.6886 22.2788 27.4554 15.0319 26.531 8.34192Z" fill="white"/>
</g>
<defs>
<clipPath id="clip0_4_1229">
<rect width="30" height="30" fill="white"/>
</clipPath>
</defs>
</svg>
