<svg width="550" height="317" viewBox="0 0 550 317" fill="none" xmlns="http://www.w3.org/2000/svg">
<rect x="35" y="8" width="515" height="1" fill="#C4C4C4"/>
<rect x="35" y="49" width="515" height="1" fill="#C4C4C4"/>
<rect x="35" y="90" width="515" height="1" fill="#C4C4C4"/>
<rect x="35" y="131" width="515" height="1" fill="#C4C4C4"/>
<rect x="35" y="172" width="515" height="1" fill="#C4C4C4"/>
<rect x="35" y="213" width="515" height="1" fill="#C4C4C4"/>
<rect x="35" y="254" width="515" height="1" fill="#C4C4C4"/>
<rect x="35" y="295" width="515" height="1" fill="#C4C4C4"/>
<path d="M1.92 4.812V7.428C2.312 7.34 2.66 7.296 2.964 7.296C3.74 7.296 4.364 7.504 4.836 7.92C5.308 8.336 5.544 8.896 5.544 9.6C5.544 10.368 5.296 10.976 4.8 11.424C4.304 11.872 3.628 12.096 2.772 12.096C2.004 12.096 1.34 11.964 0.78 11.7V10.956C1.292 11.252 1.916 11.4 2.652 11.4C4.068 11.4 4.776 10.788 4.776 9.564C4.776 9.06 4.608 8.672 4.272 8.4C3.936 8.128 3.512 7.992 3 7.992C2.416 7.992 1.808 8.132 1.176 8.412V4.152H4.992V4.812H1.92ZM8.30062 4.812V7.428C8.69262 7.34 9.04062 7.296 9.34462 7.296C10.1206 7.296 10.7446 7.504 11.2166 7.92C11.6886 8.336 11.9246 8.896 11.9246 9.6C11.9246 10.368 11.6766 10.976 11.1806 11.424C10.6846 11.872 10.0086 12.096 9.15262 12.096C8.38462 12.096 7.72062 11.964 7.16062 11.7V10.956C7.67262 11.252 8.29662 11.4 9.03262 11.4C10.4486 11.4 11.1566 10.788 11.1566 9.564C11.1566 9.06 10.9886 8.672 10.6526 8.4C10.3166 8.128 9.89262 7.992 9.38062 7.992C8.79662 7.992 8.18862 8.132 7.55662 8.412V4.152H11.3726V4.812H8.30062ZM14.0452 10.992C13.5492 10.248 13.3012 9.268 13.3012 8.052C13.3012 6.836 13.5532 5.872 14.0572 5.16C14.5612 4.44 15.2052 4.08 15.9892 4.08C16.8052 4.08 17.4652 4.436 17.9692 5.148C18.4812 5.86 18.7372 6.828 18.7372 8.052C18.7372 9.268 18.4972 10.248 18.0172 10.992C17.5372 11.728 16.8612 12.096 15.9892 12.096C15.1892 12.096 14.5412 11.728 14.0452 10.992ZM14.0572 8.052C14.0572 9.092 14.2452 9.908 14.6212 10.5C14.9972 11.084 15.4532 11.376 15.9892 11.376C16.5892 11.376 17.0692 11.088 17.4292 10.512C17.7972 9.936 17.9812 9.116 17.9812 8.052C17.9812 7.004 17.7892 6.2 17.4052 5.64C17.0292 5.08 16.5572 4.8 15.9892 4.8C15.4772 4.8 15.0252 5.084 14.6332 5.652C14.2492 6.22 14.0572 7.02 14.0572 8.052Z" fill="#4F4F4F"/>
<path d="M1.92 45.812V48.428C2.312 48.34 2.66 48.296 2.964 48.296C3.74 48.296 4.364 48.504 4.836 48.92C5.308 49.336 5.544 49.896 5.544 50.6C5.544 51.368 5.296 51.976 4.8 52.424C4.304 52.872 3.628 53.096 2.772 53.096C2.004 53.096 1.34 52.964 0.78 52.7V51.956C1.292 52.252 1.916 52.4 2.652 52.4C4.068 52.4 4.776 51.788 4.776 50.564C4.776 50.06 4.608 49.672 4.272 49.4C3.936 49.128 3.512 48.992 3 48.992C2.416 48.992 1.808 49.132 1.176 49.412V45.152H4.992V45.812H1.92ZM7.66462 51.992C7.16862 51.248 6.92062 50.268 6.92062 49.052C6.92062 47.836 7.17262 46.872 7.67662 46.16C8.18062 45.44 8.82462 45.08 9.60863 45.08C10.4246 45.08 11.0846 45.436 11.5886 46.148C12.1006 46.86 12.3566 47.828 12.3566 49.052C12.3566 50.268 12.1166 51.248 11.6366 51.992C11.1566 52.728 10.4806 53.096 9.60863 53.096C8.80862 53.096 8.16062 52.728 7.66462 51.992ZM7.67662 49.052C7.67662 50.092 7.86462 50.908 8.24062 51.5C8.61662 52.084 9.07262 52.376 9.60863 52.376C10.2086 52.376 10.6886 52.088 11.0486 51.512C11.4166 50.936 11.6006 50.116 11.6006 49.052C11.6006 48.004 11.4086 47.2 11.0246 46.64C10.6486 46.08 10.1766 45.8 9.60863 45.8C9.09662 45.8 8.64462 46.084 8.25262 46.652C7.86862 47.22 7.67662 48.02 7.67662 49.052ZM14.4202 51.992C13.9242 51.248 13.6762 50.268 13.6762 49.052C13.6762 47.836 13.9282 46.872 14.4322 46.16C14.9362 45.44 15.5802 45.08 16.3642 45.08C17.1802 45.08 17.8402 45.436 18.3442 46.148C18.8562 46.86 19.1122 47.828 19.1122 49.052C19.1122 50.268 18.8722 51.248 18.3922 51.992C17.9122 52.728 17.2362 53.096 16.3642 53.096C15.5642 53.096 14.9162 52.728 14.4202 51.992ZM14.4322 49.052C14.4322 50.092 14.6202 50.908 14.9962 51.5C15.3722 52.084 15.8282 52.376 16.3642 52.376C16.9642 52.376 17.4442 52.088 17.8042 51.512C18.1722 50.936 18.3562 50.116 18.3562 49.052C18.3562 48.004 18.1642 47.2 17.7802 46.64C17.4042 46.08 16.9322 45.8 16.3642 45.8C15.8522 45.8 15.4002 46.084 15.0082 46.652C14.6242 47.22 14.4322 48.02 14.4322 49.052Z" fill="#4F4F4F"/>
<path d="M1.92 86.812V89.428C2.312 89.34 2.66 89.296 2.964 89.296C3.74 89.296 4.364 89.504 4.836 89.92C5.308 90.336 5.544 90.896 5.544 91.6C5.544 92.368 5.296 92.976 4.8 93.424C4.304 93.872 3.628 94.096 2.772 94.096C2.004 94.096 1.34 93.964 0.78 93.7V92.956C1.292 93.252 1.916 93.4 2.652 93.4C4.068 93.4 4.776 92.788 4.776 91.564C4.776 91.06 4.608 90.672 4.272 90.4C3.936 90.128 3.512 89.992 3 89.992C2.416 89.992 1.808 90.132 1.176 90.412V86.152H4.992V86.812H1.92ZM7.66462 92.992C7.16862 92.248 6.92062 91.268 6.92062 90.052C6.92062 88.836 7.17262 87.872 7.67662 87.16C8.18062 86.44 8.82462 86.08 9.60863 86.08C10.4246 86.08 11.0846 86.436 11.5886 87.148C12.1006 87.86 12.3566 88.828 12.3566 90.052C12.3566 91.268 12.1166 92.248 11.6366 92.992C11.1566 93.728 10.4806 94.096 9.60863 94.096C8.80862 94.096 8.16062 93.728 7.66462 92.992ZM7.67662 90.052C7.67662 91.092 7.86462 91.908 8.24062 92.5C8.61662 93.084 9.07262 93.376 9.60863 93.376C10.2086 93.376 10.6886 93.088 11.0486 92.512C11.4166 91.936 11.6006 91.116 11.6006 90.052C11.6006 89.004 11.4086 88.2 11.0246 87.64C10.6486 87.08 10.1766 86.8 9.60863 86.8C9.09662 86.8 8.64462 87.084 8.25262 87.652C7.86862 88.22 7.67662 89.02 7.67662 90.052ZM14.4202 92.992C13.9242 92.248 13.6762 91.268 13.6762 90.052C13.6762 88.836 13.9282 87.872 14.4322 87.16C14.9362 86.44 15.5802 86.08 16.3642 86.08C17.1802 86.08 17.8402 86.436 18.3442 87.148C18.8562 87.86 19.1122 88.828 19.1122 90.052C19.1122 91.268 18.8722 92.248 18.3922 92.992C17.9122 93.728 17.2362 94.096 16.3642 94.096C15.5642 94.096 14.9162 93.728 14.4202 92.992ZM14.4322 90.052C14.4322 91.092 14.6202 91.908 14.9962 92.5C15.3722 93.084 15.8282 93.376 16.3642 93.376C16.9642 93.376 17.4442 93.088 17.8042 92.512C18.1722 91.936 18.3562 91.116 18.3562 90.052C18.3562 89.004 18.1642 88.2 17.7802 87.64C17.4042 87.08 16.9322 86.8 16.3642 86.8C15.8522 86.8 15.4002 87.084 15.0082 87.652C14.6242 88.22 14.4322 89.02 14.4322 90.052Z" fill="#4F4F4F"/>
<path d="M1.92 127.812V130.428C2.312 130.34 2.66 130.296 2.964 130.296C3.74 130.296 4.364 130.504 4.836 130.92C5.308 131.336 5.544 131.896 5.544 132.6C5.544 133.368 5.296 133.976 4.8 134.424C4.304 134.872 3.628 135.096 2.772 135.096C2.004 135.096 1.34 134.964 0.78 134.7V133.956C1.292 134.252 1.916 134.4 2.652 134.4C4.068 134.4 4.776 133.788 4.776 132.564C4.776 132.06 4.608 131.672 4.272 131.4C3.936 131.128 3.512 130.992 3 130.992C2.416 130.992 1.808 131.132 1.176 131.412V127.152H4.992V127.812H1.92ZM8.30062 127.812V130.428C8.69262 130.34 9.04062 130.296 9.34462 130.296C10.1206 130.296 10.7446 130.504 11.2166 130.92C11.6886 131.336 11.9246 131.896 11.9246 132.6C11.9246 133.368 11.6766 133.976 11.1806 134.424C10.6846 134.872 10.0086 135.096 9.15262 135.096C8.38462 135.096 7.72062 134.964 7.16062 134.7V133.956C7.67262 134.252 8.29662 134.4 9.03262 134.4C10.4486 134.4 11.1566 133.788 11.1566 132.564C11.1566 132.06 10.9886 131.672 10.6526 131.4C10.3166 131.128 9.89262 130.992 9.38062 130.992C8.79662 130.992 8.18862 131.132 7.55662 131.412V127.152H11.3726V127.812H8.30062ZM14.0452 133.992C13.5492 133.248 13.3012 132.268 13.3012 131.052C13.3012 129.836 13.5532 128.872 14.0572 128.16C14.5612 127.44 15.2052 127.08 15.9892 127.08C16.8052 127.08 17.4652 127.436 17.9692 128.148C18.4812 128.86 18.7372 129.828 18.7372 131.052C18.7372 132.268 18.4972 133.248 18.0172 133.992C17.5372 134.728 16.8612 135.096 15.9892 135.096C15.1892 135.096 14.5412 134.728 14.0452 133.992ZM14.0572 131.052C14.0572 132.092 14.2452 132.908 14.6212 133.5C14.9972 134.084 15.4532 134.376 15.9892 134.376C16.5892 134.376 17.0692 134.088 17.4292 133.512C17.7972 132.936 17.9812 132.116 17.9812 131.052C17.9812 130.004 17.7892 129.2 17.4052 128.64C17.0292 128.08 16.5572 127.8 15.9892 127.8C15.4772 127.8 15.0252 128.084 14.6332 128.652C14.2492 129.22 14.0572 130.02 14.0572 131.052Z" fill="#4F4F4F"/>
<path d="M1.92 168.812V171.428C2.312 171.34 2.66 171.296 2.964 171.296C3.74 171.296 4.364 171.504 4.836 171.92C5.308 172.336 5.544 172.896 5.544 173.6C5.544 174.368 5.296 174.976 4.8 175.424C4.304 175.872 3.628 176.096 2.772 176.096C2.004 176.096 1.34 175.964 0.78 175.7V174.956C1.292 175.252 1.916 175.4 2.652 175.4C4.068 175.4 4.776 174.788 4.776 173.564C4.776 173.06 4.608 172.672 4.272 172.4C3.936 172.128 3.512 171.992 3 171.992C2.416 171.992 1.808 172.132 1.176 172.412V168.152H4.992V168.812H1.92ZM7.66462 174.992C7.16862 174.248 6.92062 173.268 6.92062 172.052C6.92062 170.836 7.17262 169.872 7.67662 169.16C8.18062 168.44 8.82462 168.08 9.60863 168.08C10.4246 168.08 11.0846 168.436 11.5886 169.148C12.1006 169.86 12.3566 170.828 12.3566 172.052C12.3566 173.268 12.1166 174.248 11.6366 174.992C11.1566 175.728 10.4806 176.096 9.60863 176.096C8.80862 176.096 8.16062 175.728 7.66462 174.992ZM7.67662 172.052C7.67662 173.092 7.86462 173.908 8.24062 174.5C8.61662 175.084 9.07262 175.376 9.60863 175.376C10.2086 175.376 10.6886 175.088 11.0486 174.512C11.4166 173.936 11.6006 173.116 11.6006 172.052C11.6006 171.004 11.4086 170.2 11.0246 169.64C10.6486 169.08 10.1766 168.8 9.60863 168.8C9.09662 168.8 8.64462 169.084 8.25262 169.652C7.86862 170.22 7.67662 171.02 7.67662 172.052ZM14.4202 174.992C13.9242 174.248 13.6762 173.268 13.6762 172.052C13.6762 170.836 13.9282 169.872 14.4322 169.16C14.9362 168.44 15.5802 168.08 16.3642 168.08C17.1802 168.08 17.8402 168.436 18.3442 169.148C18.8562 169.86 19.1122 170.828 19.1122 172.052C19.1122 173.268 18.8722 174.248 18.3922 174.992C17.9122 175.728 17.2362 176.096 16.3642 176.096C15.5642 176.096 14.9162 175.728 14.4202 174.992ZM14.4322 172.052C14.4322 173.092 14.6202 173.908 14.9962 174.5C15.3722 175.084 15.8282 175.376 16.3642 175.376C16.9642 175.376 17.4442 175.088 17.8042 174.512C18.1722 173.936 18.3562 173.116 18.3562 172.052C18.3562 171.004 18.1642 170.2 17.7802 169.64C17.4042 169.08 16.9322 168.8 16.3642 168.8C15.8522 168.8 15.4002 169.084 15.0082 169.652C14.6242 170.22 14.4322 171.02 14.4322 172.052Z" fill="#4F4F4F"/>
<path d="M1.92 209.812V212.428C2.312 212.34 2.66 212.296 2.964 212.296C3.74 212.296 4.364 212.504 4.836 212.92C5.308 213.336 5.544 213.896 5.544 214.6C5.544 215.368 5.296 215.976 4.8 216.424C4.304 216.872 3.628 217.096 2.772 217.096C2.004 217.096 1.34 216.964 0.78 216.7V215.956C1.292 216.252 1.916 216.4 2.652 216.4C4.068 216.4 4.776 215.788 4.776 214.564C4.776 214.06 4.608 213.672 4.272 213.4C3.936 213.128 3.512 212.992 3 212.992C2.416 212.992 1.808 213.132 1.176 213.412V209.152H4.992V209.812H1.92ZM7.66462 215.992C7.16862 215.248 6.92062 214.268 6.92062 213.052C6.92062 211.836 7.17262 210.872 7.67662 210.16C8.18062 209.44 8.82462 209.08 9.60863 209.08C10.4246 209.08 11.0846 209.436 11.5886 210.148C12.1006 210.86 12.3566 211.828 12.3566 213.052C12.3566 214.268 12.1166 215.248 11.6366 215.992C11.1566 216.728 10.4806 217.096 9.60863 217.096C8.80862 217.096 8.16062 216.728 7.66462 215.992ZM7.67662 213.052C7.67662 214.092 7.86462 214.908 8.24062 215.5C8.61662 216.084 9.07262 216.376 9.60863 216.376C10.2086 216.376 10.6886 216.088 11.0486 215.512C11.4166 214.936 11.6006 214.116 11.6006 213.052C11.6006 212.004 11.4086 211.2 11.0246 210.64C10.6486 210.08 10.1766 209.8 9.60863 209.8C9.09662 209.8 8.64462 210.084 8.25262 210.652C7.86862 211.22 7.67662 212.02 7.67662 213.052ZM14.4202 215.992C13.9242 215.248 13.6762 214.268 13.6762 213.052C13.6762 211.836 13.9282 210.872 14.4322 210.16C14.9362 209.44 15.5802 209.08 16.3642 209.08C17.1802 209.08 17.8402 209.436 18.3442 210.148C18.8562 210.86 19.1122 211.828 19.1122 213.052C19.1122 214.268 18.8722 215.248 18.3922 215.992C17.9122 216.728 17.2362 217.096 16.3642 217.096C15.5642 217.096 14.9162 216.728 14.4202 215.992ZM14.4322 213.052C14.4322 214.092 14.6202 214.908 14.9962 215.5C15.3722 216.084 15.8282 216.376 16.3642 216.376C16.9642 216.376 17.4442 216.088 17.8042 215.512C18.1722 214.936 18.3562 214.116 18.3562 213.052C18.3562 212.004 18.1642 211.2 17.7802 210.64C17.4042 210.08 16.9322 209.8 16.3642 209.8C15.8522 209.8 15.4002 210.084 15.0082 210.652C14.6242 211.22 14.4322 212.02 14.4322 213.052Z" fill="#4F4F4F"/>
<path d="M1.92 250.812V253.428C2.312 253.34 2.66 253.296 2.964 253.296C3.74 253.296 4.364 253.504 4.836 253.92C5.308 254.336 5.544 254.896 5.544 255.6C5.544 256.368 5.296 256.976 4.8 257.424C4.304 257.872 3.628 258.096 2.772 258.096C2.004 258.096 1.34 257.964 0.78 257.7V256.956C1.292 257.252 1.916 257.4 2.652 257.4C4.068 257.4 4.776 256.788 4.776 255.564C4.776 255.06 4.608 254.672 4.272 254.4C3.936 254.128 3.512 253.992 3 253.992C2.416 253.992 1.808 254.132 1.176 254.412V250.152H4.992V250.812H1.92ZM8.30062 250.812V253.428C8.69262 253.34 9.04062 253.296 9.34462 253.296C10.1206 253.296 10.7446 253.504 11.2166 253.92C11.6886 254.336 11.9246 254.896 11.9246 255.6C11.9246 256.368 11.6766 256.976 11.1806 257.424C10.6846 257.872 10.0086 258.096 9.15262 258.096C8.38462 258.096 7.72062 257.964 7.16062 257.7V256.956C7.67262 257.252 8.29662 257.4 9.03262 257.4C10.4486 257.4 11.1566 256.788 11.1566 255.564C11.1566 255.06 10.9886 254.672 10.6526 254.4C10.3166 254.128 9.89262 253.992 9.38062 253.992C8.79662 253.992 8.18862 254.132 7.55662 254.412V250.152H11.3726V250.812H8.30062ZM14.0452 256.992C13.5492 256.248 13.3012 255.268 13.3012 254.052C13.3012 252.836 13.5532 251.872 14.0572 251.16C14.5612 250.44 15.2052 250.08 15.9892 250.08C16.8052 250.08 17.4652 250.436 17.9692 251.148C18.4812 251.86 18.7372 252.828 18.7372 254.052C18.7372 255.268 18.4972 256.248 18.0172 256.992C17.5372 257.728 16.8612 258.096 15.9892 258.096C15.1892 258.096 14.5412 257.728 14.0452 256.992ZM14.0572 254.052C14.0572 255.092 14.2452 255.908 14.6212 256.5C14.9972 257.084 15.4532 257.376 15.9892 257.376C16.5892 257.376 17.0692 257.088 17.4292 256.512C17.7972 255.936 17.9812 255.116 17.9812 254.052C17.9812 253.004 17.7892 252.2 17.4052 251.64C17.0292 251.08 16.5572 250.8 15.9892 250.8C15.4772 250.8 15.0252 251.084 14.6332 251.652C14.2492 252.22 14.0572 253.02 14.0572 254.052Z" fill="#4F4F4F"/>
<path d="M1.92 291.812V294.428C2.312 294.34 2.66 294.296 2.964 294.296C3.74 294.296 4.364 294.504 4.836 294.92C5.308 295.336 5.544 295.896 5.544 296.6C5.544 297.368 5.296 297.976 4.8 298.424C4.304 298.872 3.628 299.096 2.772 299.096C2.004 299.096 1.34 298.964 0.78 298.7V297.956C1.292 298.252 1.916 298.4 2.652 298.4C4.068 298.4 4.776 297.788 4.776 296.564C4.776 296.06 4.608 295.672 4.272 295.4C3.936 295.128 3.512 294.992 3 294.992C2.416 294.992 1.808 295.132 1.176 295.412V291.152H4.992V291.812H1.92ZM7.66462 297.992C7.16862 297.248 6.92062 296.268 6.92062 295.052C6.92062 293.836 7.17262 292.872 7.67662 292.16C8.18062 291.44 8.82462 291.08 9.60863 291.08C10.4246 291.08 11.0846 291.436 11.5886 292.148C12.1006 292.86 12.3566 293.828 12.3566 295.052C12.3566 296.268 12.1166 297.248 11.6366 297.992C11.1566 298.728 10.4806 299.096 9.60863 299.096C8.80862 299.096 8.16062 298.728 7.66462 297.992ZM7.67662 295.052C7.67662 296.092 7.86462 296.908 8.24062 297.5C8.61662 298.084 9.07262 298.376 9.60863 298.376C10.2086 298.376 10.6886 298.088 11.0486 297.512C11.4166 296.936 11.6006 296.116 11.6006 295.052C11.6006 294.004 11.4086 293.2 11.0246 292.64C10.6486 292.08 10.1766 291.8 9.60863 291.8C9.09662 291.8 8.64462 292.084 8.25262 292.652C7.86862 293.22 7.67662 294.02 7.67662 295.052ZM14.4202 297.992C13.9242 297.248 13.6762 296.268 13.6762 295.052C13.6762 293.836 13.9282 292.872 14.4322 292.16C14.9362 291.44 15.5802 291.08 16.3642 291.08C17.1802 291.08 17.8402 291.436 18.3442 292.148C18.8562 292.86 19.1122 293.828 19.1122 295.052C19.1122 296.268 18.8722 297.248 18.3922 297.992C17.9122 298.728 17.2362 299.096 16.3642 299.096C15.5642 299.096 14.9162 298.728 14.4202 297.992ZM14.4322 295.052C14.4322 296.092 14.6202 296.908 14.9962 297.5C15.3722 298.084 15.8282 298.376 16.3642 298.376C16.9642 298.376 17.4442 298.088 17.8042 297.512C18.1722 296.936 18.3562 296.116 18.3562 295.052C18.3562 294.004 18.1642 293.2 17.7802 292.64C17.4042 292.08 16.9322 291.8 16.3642 291.8C15.8522 291.8 15.4002 292.084 15.0082 292.652C14.6242 293.22 14.4322 294.02 14.4322 295.052Z" fill="#4F4F4F"/>
<path d="M50.6 306.92C50.6 305.648 50.916 304.636 51.548 303.884C52.188 303.124 53.052 302.744 54.14 302.744C55.26 302.744 56.132 303.12 56.756 303.872C57.38 304.616 57.692 305.632 57.692 306.92C57.692 308.2 57.376 309.216 56.744 309.968C56.112 310.72 55.252 311.096 54.164 311.096C53.092 311.096 52.228 310.716 51.572 309.956C50.924 309.196 50.6 308.184 50.6 306.92ZM51.368 306.92C51.368 307.984 51.62 308.828 52.124 309.452C52.636 310.068 53.316 310.376 54.164 310.376C55.044 310.376 55.724 310.072 56.204 309.464C56.684 308.848 56.924 308 56.924 306.92C56.924 305.832 56.68 304.984 56.192 304.376C55.712 303.768 55.028 303.464 54.14 303.464C53.276 303.464 52.596 303.772 52.1 304.388C51.612 304.996 51.368 305.84 51.368 306.92ZM59.8449 307.988C59.8449 308.676 60.0569 309.256 60.4809 309.728C60.9049 310.2 61.5089 310.436 62.2929 310.436C62.7809 310.436 63.1969 310.308 63.5409 310.052V310.796C63.1969 311.028 62.7529 311.144 62.2089 311.144C61.2249 311.144 60.4569 310.836 59.9049 310.22C59.3529 309.596 59.0769 308.848 59.0769 307.976C59.0769 307.128 59.3569 306.388 59.9169 305.756C60.4849 305.124 61.2489 304.808 62.2089 304.808C62.7049 304.808 63.1489 304.916 63.5409 305.132V305.876C63.1809 305.636 62.7609 305.516 62.2809 305.516C61.5369 305.516 60.9449 305.76 60.5049 306.248C60.0649 306.728 59.8449 307.308 59.8449 307.988ZM66.477 305.54V309.32C66.477 310.016 66.801 310.364 67.449 310.364C67.769 310.364 68.041 310.272 68.265 310.088V310.832C68.033 310.984 67.765 311.06 67.461 311.06C66.309 311.06 65.733 310.468 65.733 309.284V305.54H64.737V304.916H65.733V303.392H66.477V304.916H68.217V305.54H66.477ZM69.4561 310.928C69.3441 310.808 69.2881 310.66 69.2881 310.484C69.2881 310.308 69.3441 310.164 69.4561 310.052C69.5761 309.932 69.7241 309.872 69.9001 309.872C70.0761 309.872 70.2201 309.932 70.3321 310.052C70.4521 310.164 70.5121 310.308 70.5121 310.484C70.5121 310.66 70.4521 310.808 70.3321 310.928C70.2201 311.04 70.0761 311.096 69.9001 311.096C69.7241 311.096 69.5761 311.04 69.4561 310.928ZM74.3736 305.06V304.232L76.1376 303.152H76.8696V311H76.1376V303.956L74.3736 305.06ZM78.185 303.152H83.261V303.812L79.961 311H79.169L82.481 303.812H78.185V303.152Z" fill="#4F4F4F"/>
<path d="M154.96 311V302.912H155.98L158.044 306.332L160.324 310.124C160.308 309.292 160.3 308.032 160.3 306.344V302.912H161.044V311H160.024L157.972 307.604L155.68 303.788C155.696 304.652 155.704 305.916 155.704 307.58V311H154.96ZM165.58 311.108C164.724 311.108 164.044 310.812 163.54 310.22C163.036 309.628 162.784 308.884 162.784 307.988C162.784 307.1 163.044 306.352 163.564 305.744C164.084 305.136 164.756 304.832 165.58 304.832C166.484 304.832 167.184 305.132 167.68 305.732C168.184 306.324 168.436 307.076 168.436 307.988C168.436 308.892 168.18 309.64 167.668 310.232C167.164 310.816 166.468 311.108 165.58 311.108ZM165.58 305.528C164.948 305.528 164.452 305.768 164.092 306.248C163.732 306.728 163.552 307.308 163.552 307.988C163.552 308.652 163.736 309.224 164.104 309.704C164.48 310.176 164.972 310.412 165.58 310.412C166.244 310.412 166.756 310.18 167.116 309.716C167.484 309.244 167.668 308.668 167.668 307.988C167.668 307.284 167.496 306.7 167.152 306.236C166.808 305.764 166.284 305.528 165.58 305.528ZM171.67 311L169.57 304.916H170.338L171.19 307.472L172.162 310.412C172.242 310.116 172.574 309.136 173.158 307.472L174.046 304.916H174.814L172.654 311H171.67ZM175.823 310.928C175.711 310.808 175.655 310.66 175.655 310.484C175.655 310.308 175.711 310.164 175.823 310.052C175.943 309.932 176.091 309.872 176.267 309.872C176.443 309.872 176.587 309.932 176.699 310.052C176.819 310.164 176.879 310.308 176.879 310.484C176.879 310.66 176.819 310.808 176.699 310.928C176.587 311.04 176.443 311.096 176.267 311.096C176.091 311.096 175.943 311.04 175.823 310.928ZM180.741 305.06V304.232L182.505 303.152H183.237V311H182.505V303.956L180.741 305.06ZM184.552 303.152H189.628V303.812L186.328 311H185.536L188.848 303.812H184.552V303.152Z" fill="#4F4F4F"/>
<path d="M261.704 310.316H263.324C263.876 310.316 264.364 310.22 264.788 310.028C265.212 309.836 265.548 309.576 265.796 309.248C266.044 308.92 266.228 308.56 266.348 308.168C266.476 307.776 266.54 307.356 266.54 306.908C266.54 305.988 266.232 305.208 265.616 304.568C265.008 303.92 264.224 303.596 263.264 303.596H261.704V310.316ZM260.96 302.912H263.264C264.448 302.912 265.42 303.28 266.18 304.016C266.94 304.752 267.32 305.716 267.32 306.908C267.32 307.636 267.18 308.304 266.9 308.912C266.62 309.512 266.168 310.012 265.544 310.412C264.928 310.804 264.188 311 263.324 311H260.96V302.912ZM272.999 307.616V307.34C272.999 306.788 272.843 306.348 272.531 306.02C272.227 305.692 271.815 305.528 271.295 305.528C270.783 305.528 270.355 305.708 270.011 306.068C269.667 306.428 269.467 306.944 269.411 307.616H272.999ZM273.371 309.956V310.7C272.891 310.94 272.331 311.06 271.691 311.06C270.787 311.06 270.051 310.78 269.483 310.22C268.923 309.652 268.643 308.908 268.643 307.988C268.643 307.012 268.891 306.244 269.387 305.684C269.883 305.124 270.527 304.844 271.319 304.844C272.063 304.844 272.655 305.088 273.095 305.576C273.535 306.064 273.755 306.752 273.755 307.64C273.755 307.912 273.739 308.128 273.707 308.288H269.411C269.467 308.96 269.699 309.476 270.107 309.836C270.515 310.188 271.055 310.364 271.727 310.364C272.415 310.364 272.963 310.228 273.371 309.956ZM275.874 307.988C275.874 308.676 276.086 309.256 276.51 309.728C276.934 310.2 277.538 310.436 278.322 310.436C278.81 310.436 279.226 310.308 279.57 310.052V310.796C279.226 311.028 278.782 311.144 278.238 311.144C277.254 311.144 276.486 310.836 275.934 310.22C275.382 309.596 275.106 308.848 275.106 307.976C275.106 307.128 275.386 306.388 275.946 305.756C276.514 305.124 277.278 304.808 278.238 304.808C278.734 304.808 279.178 304.916 279.57 305.132V305.876C279.21 305.636 278.79 305.516 278.31 305.516C277.566 305.516 276.974 305.76 276.534 306.248C276.094 306.728 275.874 307.308 275.874 307.988ZM280.874 310.928C280.762 310.808 280.706 310.66 280.706 310.484C280.706 310.308 280.762 310.164 280.874 310.052C280.994 309.932 281.142 309.872 281.318 309.872C281.494 309.872 281.638 309.932 281.75 310.052C281.87 310.164 281.93 310.308 281.93 310.484C281.93 310.66 281.87 310.808 281.75 310.928C281.638 311.04 281.494 311.096 281.318 311.096C281.142 311.096 280.994 311.04 280.874 310.928ZM285.792 305.06V304.232L287.556 303.152H288.288V311H287.556V303.956L285.792 305.06ZM289.603 303.152H294.679V303.812L291.379 311H290.587L293.899 303.812H289.603V303.152Z" fill="#4F4F4F"/>
<path d="M365.36 310.724V309.968C365.68 310.184 366.024 310.292 366.392 310.292C367.12 310.292 367.484 309.908 367.484 309.14V302.912H368.228V309.02C368.228 310.34 367.64 311 366.464 311C366.032 311 365.664 310.908 365.36 310.724ZM373.684 308.108H372.496C371.928 308.108 371.504 308.22 371.224 308.444C370.944 308.66 370.804 308.932 370.804 309.26C370.804 309.596 370.912 309.868 371.128 310.076C371.352 310.284 371.676 310.388 372.1 310.388C372.58 310.388 372.964 310.256 373.252 309.992C373.54 309.728 373.684 309.392 373.684 308.984V308.108ZM370.468 306.032V305.24C370.932 304.96 371.504 304.82 372.184 304.82C373.672 304.82 374.416 305.6 374.416 307.16V311H373.684V310.292C373.348 310.804 372.764 311.06 371.932 311.06C371.372 311.06 370.912 310.896 370.552 310.568C370.2 310.232 370.024 309.804 370.024 309.284C370.024 308.7 370.248 308.248 370.696 307.928C371.152 307.6 371.752 307.436 372.496 307.436H373.684V307.16C373.684 306.616 373.568 306.208 373.336 305.936C373.104 305.656 372.716 305.516 372.172 305.516C371.54 305.516 370.972 305.688 370.468 306.032ZM377.144 304.916V305.96C377.52 305.2 378.164 304.82 379.076 304.82C379.66 304.82 380.128 305 380.48 305.36C380.832 305.72 381.008 306.184 381.008 306.752V311H380.276V306.98C380.276 306.508 380.156 306.148 379.916 305.9C379.676 305.652 379.36 305.528 378.968 305.528C378.472 305.528 378.044 305.72 377.684 306.104C377.324 306.48 377.144 306.992 377.144 307.64V311H376.412V304.916H377.144ZM382.499 310.928C382.387 310.808 382.331 310.66 382.331 310.484C382.331 310.308 382.387 310.164 382.499 310.052C382.619 309.932 382.767 309.872 382.943 309.872C383.119 309.872 383.263 309.932 383.375 310.052C383.495 310.164 383.555 310.308 383.555 310.484C383.555 310.66 383.495 310.808 383.375 310.928C383.263 311.04 383.119 311.096 382.943 311.096C382.767 311.096 382.619 311.04 382.499 310.928ZM387.417 305.06V304.232L389.181 303.152H389.913V311H389.181V303.956L387.417 305.06ZM391.228 303.152H396.304V303.812L393.004 311H392.212L395.524 303.812H391.228V303.152Z" fill="#4F4F4F"/>
<path d="M472.268 303.596H468.704V306.68H471.848V307.364H468.704V311H467.96V302.912H472.268V303.596ZM477.949 307.616V307.34C477.949 306.788 477.793 306.348 477.48 306.02C477.177 305.692 476.765 305.528 476.244 305.528C475.732 305.528 475.304 305.708 474.96 306.068C474.616 306.428 474.416 306.944 474.36 307.616H477.949ZM478.32 309.956V310.7C477.84 310.94 477.28 311.06 476.641 311.06C475.736 311.06 475 310.78 474.432 310.22C473.872 309.652 473.592 308.908 473.592 307.988C473.592 307.012 473.84 306.244 474.336 305.684C474.832 305.124 475.476 304.844 476.268 304.844C477.013 304.844 477.605 305.088 478.044 305.576C478.484 306.064 478.704 306.752 478.704 307.64C478.704 307.912 478.688 308.128 478.656 308.288H474.36C474.416 308.96 474.648 309.476 475.056 309.836C475.464 310.188 476.004 310.364 476.676 310.364C477.364 310.364 477.912 310.228 478.32 309.956ZM481.771 309.836C482.147 310.212 482.595 310.4 483.115 310.4C483.635 310.4 484.063 310.18 484.399 309.74C484.743 309.3 484.915 308.732 484.915 308.036C484.915 307.228 484.739 306.608 484.387 306.176C484.035 305.736 483.587 305.516 483.043 305.516C482.851 305.516 482.655 305.556 482.455 305.636C482.263 305.708 482.067 305.832 481.867 306.008C481.675 306.176 481.515 306.428 481.387 306.764C481.267 307.092 481.207 307.48 481.207 307.928C481.207 308.816 481.395 309.452 481.771 309.836ZM481.207 302.516V305.828C481.655 305.156 482.275 304.82 483.067 304.82C483.835 304.82 484.463 305.12 484.951 305.72C485.439 306.312 485.683 307.08 485.683 308.024C485.683 308.88 485.455 309.608 484.999 310.208C484.543 310.8 483.907 311.096 483.091 311.096C482.259 311.096 481.631 310.768 481.207 310.112V311H480.475V302.516H481.207ZM486.866 310.928C486.754 310.808 486.698 310.66 486.698 310.484C486.698 310.308 486.754 310.164 486.866 310.052C486.986 309.932 487.134 309.872 487.31 309.872C487.486 309.872 487.63 309.932 487.742 310.052C487.862 310.164 487.922 310.308 487.922 310.484C487.922 310.66 487.862 310.808 487.742 310.928C487.63 311.04 487.486 311.096 487.31 311.096C487.134 311.096 486.986 311.04 486.866 310.928ZM491.784 305.06V304.232L493.548 303.152H494.28V311H493.548V303.956L491.784 305.06ZM495.595 303.152H500.671V303.812L497.371 311H496.579L499.891 303.812H495.595V303.152Z" fill="#4F4F4F"/>
<rect x="64" y="252" width="6" height="6" rx="3" fill="#489DD7"/>
<rect x="169" y="129" width="6" height="6" rx="3" fill="#489DD7"/>
<rect x="274" y="88" width="6" height="6" rx="3" fill="#489DD7"/>
<rect x="378" y="129" width="6" height="6" rx="3" fill="#489DD7"/>
<rect x="481" y="47" width="6" height="6" rx="3" fill="#489DD7"/>
<line x1="66.2399" y1="255.35" x2="172.24" y2="131.35" stroke="#489DD7" stroke-width="2"/>
<line x1="171.636" y1="132.068" x2="276.636" y2="91.0685" stroke="#489DD7" stroke-width="2"/>
<line x1="277.367" y1="91.0697" x2="381.367" y2="132.07" stroke="#489DD7" stroke-width="2"/>
<line x1="380.377" y1="132.218" x2="483.377" y2="50.2177" stroke="#489DD7" stroke-width="2"/>
</svg>
