<svg width="30" height="30" viewBox="0 0 30 30" fill="none" xmlns="http://www.w3.org/2000/svg">
<g clip-path="url(#clip0_4_1241)">
<path d="M28.5732 16.9314C28.6575 16.322 28.7044 15.7014 28.7044 15.0714C28.7044 7.50391 22.5338 1.36701 14.925 1.36701C14.1694 1.36701 13.4269 1.42887 12.7069 1.54699C11.4131 0.703226 9.87371 0.213867 8.21813 0.213867C3.67685 0.213929 0 3.89639 0 8.43575C0 10.0876 0.485596 11.6232 1.32375 12.9114C1.21125 13.6164 1.15315 14.3364 1.15315 15.0714C1.15315 22.6408 7.31812 28.7758 14.9269 28.7758C15.7857 28.7758 16.6219 28.6914 17.4338 28.5451C18.6957 29.3289 20.1863 29.7845 21.7782 29.7845C26.3213 29.7845 30.0001 26.1039 30.0001 21.5626C30.0019 19.847 29.4787 18.2495 28.5732 16.9314ZM16.2169 25.1702C11.8387 25.3989 9.79125 24.4277 7.91436 22.6689C5.81809 20.702 6.66001 18.4595 8.36814 18.3452C10.0744 18.2308 11.0982 20.2783 12.0094 20.8483C12.9188 21.4164 16.38 22.7102 18.2082 20.6195C20.1994 18.3451 16.8844 17.1677 14.4544 16.8114C10.9857 16.2995 6.60567 14.4227 6.94693 10.7233C7.2882 7.02954 10.0857 5.13206 13.0313 4.86579C16.7851 4.52453 19.2301 5.43392 21.1631 7.08394C23.3981 8.9908 22.1888 11.1208 20.7656 11.2914C19.3444 11.462 17.7543 8.15641 14.625 8.10768C11.4 8.05705 9.22128 11.4639 13.2019 12.4314C17.1844 13.3989 21.4462 13.7964 22.9856 17.4358C24.5231 21.0751 20.5969 24.9414 16.2169 25.1702Z" fill="white"/>
</g>
<defs>
<clipPath id="clip0_4_1241">
<rect width="30" height="30" fill="white"/>
</clipPath>
</defs>
</svg>
