<svg width="30" height="30" viewBox="0 0 30 30" fill="none" xmlns="http://www.w3.org/2000/svg">
<g clip-path="url(#clip0_4_1225)">
<path d="M30.0001 5.69861C28.8959 6.18788 27.7112 6.51969 26.4663 6.66783C27.7374 5.9067 28.7103 4.69945 29.1714 3.26533C27.9792 3.97018 26.6632 4.482 25.2609 4.75945C24.138 3.56156 22.5408 2.81543 20.7692 2.81543C17.3705 2.81543 14.6148 5.57116 14.6148 8.96802C14.6148 9.44978 14.6691 9.92032 14.7741 10.3703C9.66012 10.1134 5.12537 7.66327 2.09032 3.94018C1.55978 4.84754 1.25797 5.90479 1.25797 7.03337C1.25797 9.16861 2.34527 11.0526 3.99498 12.1549C2.9864 12.1212 2.03782 11.8437 1.20738 11.3825V11.4594C1.20738 14.4401 3.32948 16.9277 6.14331 17.4939C5.62777 17.6326 5.08414 17.7095 4.52174 17.7095C4.12434 17.7095 3.74002 17.6701 3.36321 17.5951C4.14679 20.0415 6.4189 21.8206 9.11091 21.8693C7.00566 23.519 4.35115 24.4995 1.46797 24.4995C0.971201 24.4995 0.481887 24.4695 0.00012207 24.4151C2.72399 26.1642 5.95777 27.184 9.43336 27.184C20.7543 27.184 26.9426 17.807 26.9426 9.67478L26.9219 8.87807C28.1311 8.01567 29.1771 6.93214 30.0001 5.69861Z" fill="white"/>
</g>
<defs>
<clipPath id="clip0_4_1225">
<rect width="30" height="30" fill="white"/>
</clipPath>
</defs>
</svg>
