<svg width="30" height="30" viewBox="0 0 30 30" fill="none" xmlns="http://www.w3.org/2000/svg">
<g clip-path="url(#clip0_4_1239)">
<path d="M29.7439 9.33623C29.577 7.33926 28.3863 4.82099 25.9393 4.73096C19.1064 4.27154 11.0116 4.14594 4.05499 4.73096C1.89673 4.97285 0.417297 7.60174 0.256055 9.59871C-0.085189 13.7933 -0.085189 16.1803 0.256055 20.3749C0.419185 22.3719 1.86115 25.0158 4.05877 25.2933C11.0979 25.7527 19.1533 25.8183 25.9431 25.2933C28.0732 24.9239 29.5826 22.3719 29.7458 20.3749C30.0851 16.1785 30.0851 13.5308 29.7439 9.33623ZM11.2478 20.3074V9.55369L20.6233 14.9315L11.2478 20.3074Z" fill="white"/>
</g>
<defs>
<clipPath id="clip0_4_1239">
<rect width="30" height="30" fill="white"/>
</clipPath>
</defs>
</svg>
