<svg width="9" height="13" viewBox="0 0 9 13" fill="none" xmlns="http://www.w3.org/2000/svg">
<path d="M8.12492 7.04175C7.82539 7.04175 7.58329 7.28445 7.58329 7.58338V9.7501C7.58329 10.0485 7.3406 10.2917 7.04157 10.2917H5.41658V2.16679C5.41658 1.70421 5.12192 1.29092 4.67887 1.13709L4.5185 1.08344H7.04157C7.3406 1.08344 7.58329 1.32663 7.58329 1.62517V3.25015C7.58329 3.54908 7.82539 3.79178 8.12492 3.79178C8.42445 3.79178 8.66655 3.54908 8.66655 3.25015V1.62517C8.66655 0.729261 7.93747 0.000179291 7.04157 0.000179291H1.21874C1.19811 0.000179291 1.18086 0.00940316 1.16082 0.012081C1.13474 0.00989906 1.10984 0.000179291 1.08336 0.000179291C0.485894 0.000179291 5.72205e-06 0.485969 5.72205e-06 1.08344V10.8334C5.72205e-06 11.2959 0.294673 11.7092 0.737715 11.8631L3.9975 12.9497C4.10799 12.9838 4.21788 13.0001 4.33333 13.0001C4.93079 13.0001 5.41658 12.5142 5.41658 11.9167V11.3751H7.04157C7.93747 11.3751 8.66655 10.646 8.66655 9.7501V7.58338C8.66655 7.28445 8.42445 7.04175 8.12492 7.04175Z" fill="#FFA800"/>
</svg>
