<svg width="12" height="17" viewBox="0 0 12 17" fill="none" xmlns="http://www.w3.org/2000/svg">
<path d="M6.00001 16.25C7.49185 16.25 8.92259 15.6574 9.97748 14.6025C11.0324 13.5476 11.625 12.1168 11.625 10.625C11.625 9.9755 11.4525 9.35225 11.25 8.7725C9.99976 10.0077 9.05026 10.625 8.40001 10.625C11.3963 5.375 9.75001 3.125 5.25001 0.125C5.62501 3.875 3.15301 5.5805 2.14651 6.52775C1.3255 7.30001 0.755435 8.30111 0.51022 9.40125C0.265004 10.5014 0.355951 11.6498 0.771267 12.6976C1.18658 13.7455 1.90711 14.6444 2.83944 15.2778C3.77176 15.9112 4.87287 16.2499 6.00001 16.25ZM6.53251 2.92625C8.96326 4.98875 8.97526 6.5915 7.09726 9.88175C6.52651 10.8815 7.24876 12.125 8.40001 12.125C8.91601 12.125 9.43801 11.975 9.98926 11.6788C9.82586 12.296 9.52141 12.8669 9.09987 13.3464C8.67834 13.826 8.15124 14.2012 7.56006 14.4424C6.96889 14.6836 6.32978 14.7843 5.69307 14.7366C5.05637 14.6888 4.43944 14.4939 3.89086 14.1672C3.34229 13.8405 2.87705 13.3909 2.53177 12.8538C2.18649 12.3167 1.97061 11.7068 1.90112 11.0721C1.83163 10.4374 1.91043 9.7952 2.13131 9.19612C2.35219 8.59705 2.70912 8.05743 3.17401 7.61975C3.26851 7.53125 3.74776 7.106 3.76876 7.08725C4.08676 6.80225 4.34851 6.5495 4.60726 6.27275C5.52976 5.28425 6.19276 4.18775 6.53176 2.92625H6.53251Z" fill="#FF0707"/>
</svg>
