<svg width="108" height="108" viewBox="0 0 108 108" fill="none" xmlns="http://www.w3.org/2000/svg">
<path d="M107.941 56.5069C106.556 86.2976 81.2837 109.325 51.4931 107.941C21.7024 106.556 -1.32524 81.2837 0.0593022 51.4931C1.44385 21.7024 26.7163 -1.32524 56.5069 0.0593022C86.2976 1.44385 109.325 26.7163 107.941 56.5069Z" fill="#FF6B00"/>
<path d="M62.4904 0.567566C62.4904 0.567566 68.7269 1.46647 75.7266 4.471C84.017 7.95423 88.5265 12.2779 88.5265 12.2779L25.3013 99.5729C25.3013 99.5729 18.019 95.2265 13.8394 89.7434C9.18832 84.6982 5.67767 77.6072 5.67767 77.6072L62.4904 0.567566Z" fill="white" fill-opacity="0.15"/>
<path d="M96.6274 20.5107C96.6274 20.5107 98.6371 22.9927 99.7146 24.8045C100.792 26.6163 102.305 29.3112 102.305 29.3112L46.5928 107.451C46.5928 107.451 43.683 107.06 40.3473 106.173C37.4464 105.515 35.5212 104.612 35.5212 104.612L96.6274 20.5107Z" fill="white" fill-opacity="0.15"/>
<path d="M62.9892 43.9203L65.9205 41.0486C59.8049 35.3498 53.4663 37.0907 51.3831 37.7454C47.0978 39.2779 42.3864 43.4804 42.0984 50.3483C41.8156 57.0887 46.458 63.2042 53.3175 64.6475C58.57 65.5551 63.1231 63.6059 65.8907 60.7937L63.019 57.9071C61.7989 59.023 59.3289 61.1062 54.8501 60.7193C49.9994 60.1092 47.2467 56.3447 46.5474 53.5623C45.8034 51.375 45.7885 45.0066 51.7552 42.0307C56.7547 39.769 61.04 41.9414 62.9892 43.9203Z" fill="white"/>
<path d="M42.0983 71.0308V66.9241L65.8907 66.939V71.0308H42.0983Z" fill="white"/>
<path d="M54.1784 97.1326L54.1784 88.5726L48.8284 92.8526L54.1784 97.1326Z" fill="#225196"/>
<path fill-rule="evenodd" clip-rule="evenodd" d="M97.5954 56.1163L90.7884 55.8239C90.8103 55.3132 90.8214 54.7993 90.8214 54.2823C90.8214 53.7653 90.8103 53.2514 90.7884 52.7407L97.5954 52.4483C97.6215 53.0564 97.6347 53.6678 97.6347 54.2823C97.6347 54.8968 97.6215 55.5083 97.5954 56.1163ZM97.2797 48.7962L90.5236 49.6774C90.3903 48.6551 90.2131 47.6472 89.9943 46.6557L96.6473 45.187C96.9089 46.372 97.1205 47.5759 97.2797 48.7962ZM95.7012 41.6475L89.2027 43.6946C88.8942 42.7151 88.5439 41.7541 88.1538 40.8134L94.4474 38.2036C94.9136 39.3278 95.3323 40.4766 95.7012 41.6475ZM92.8963 34.8829L86.8555 38.034C86.3812 37.1246 85.868 36.2382 85.3183 35.377L91.0611 31.7109C91.7172 32.7386 92.3298 33.7968 92.8963 34.8829ZM88.9566 28.7108L83.5542 32.8623C82.9294 32.0492 82.2698 31.264 81.5775 30.5089L86.5996 25.9046C87.4249 26.8048 88.2114 27.7411 88.9566 28.7108ZM84.0081 23.3132L79.4038 28.3352C78.6488 27.643 77.8636 26.9834 77.0505 26.3585L81.202 20.9562C82.1717 21.7013 83.1079 22.4879 84.0081 23.3132ZM78.2019 18.8517L74.5357 24.5945C73.6745 24.0447 72.7881 23.5316 71.8788 23.0572L75.0298 17.0164C76.1159 17.583 77.1741 18.1956 78.2019 18.8517ZM71.7092 15.4654L69.0993 21.759C68.1587 21.3689 67.1976 21.0186 66.2182 20.71L68.2652 14.2116C69.4362 14.5804 70.585 14.9992 71.7092 15.4654ZM64.7258 13.2654L63.2571 19.9185C62.2655 19.6996 61.2577 19.5225 60.2353 19.3891L61.1166 12.6331C62.3369 12.7923 63.5407 13.0038 64.7258 13.2654ZM53.7964 96.2472L54.0889 89.4402C54.5996 89.4622 55.1135 89.4733 55.6305 89.4733C56.1474 89.4733 56.6613 89.4622 57.172 89.4402L57.4645 96.2472C56.8564 96.2734 56.245 96.2866 55.6305 96.2866C55.0159 96.2866 54.4045 96.2734 53.7964 96.2472ZM61.1166 95.9315L60.2353 89.1755C61.2577 89.0421 62.2655 88.865 63.2571 88.6461L64.7258 95.2992C63.5407 95.5608 62.3369 95.7723 61.1166 95.9315ZM68.2652 94.3531L66.2182 87.8546C67.1976 87.546 68.1587 87.1957 69.0993 86.8057L71.7092 93.0993C70.585 93.5654 69.4362 93.9842 68.2652 94.3531ZM75.0298 91.5482L71.8788 85.5074C72.7881 85.033 73.6745 84.5199 74.5357 83.9701L78.2019 89.7129C77.1741 90.369 76.1159 90.9817 75.0298 91.5482ZM81.202 87.6085L77.0505 82.2061C77.8636 81.5812 78.6488 80.9216 79.4038 80.2294L84.0081 85.2514C83.1079 86.0767 82.1717 86.8633 81.202 87.6085ZM86.5996 82.66L81.5775 78.0557C82.2698 77.3006 82.9294 76.5154 83.5542 75.7023L88.9566 79.8538C88.2114 80.8235 87.4249 81.7598 86.5996 82.66ZM91.0611 76.8537L85.3183 73.1876C85.868 72.3264 86.3812 71.44 86.8555 70.5306L92.8963 73.6817C92.3298 74.7678 91.7172 75.826 91.0611 76.8537ZM94.4474 70.361L88.1538 67.7512C88.5439 66.8105 88.8942 65.8495 89.2027 64.87L95.7012 66.9171C95.3323 68.088 94.9136 69.2368 94.4474 70.361ZM96.6473 63.3776L89.9943 61.909C90.2131 60.9174 90.3903 59.9095 90.5236 58.8872L97.2797 59.7684C97.1205 60.9887 96.9089 62.1926 96.6473 63.3776Z" fill="#225196"/>
<path d="M53.8182 10.9298L53.8182 19.4897L59.1682 15.2097L53.8182 10.9298Z" fill="white"/>
<path fill-rule="evenodd" clip-rule="evenodd" d="M10.4012 51.946L17.2082 52.2384C17.1862 52.7491 17.1752 53.2631 17.1752 53.78C17.1752 54.297 17.1862 54.8109 17.2082 55.3216L10.4012 55.6141C10.3751 55.006 10.3619 54.3946 10.3619 53.78C10.3619 53.1655 10.3751 52.5541 10.4012 51.946ZM10.7169 59.2662L17.4729 58.3849C17.6063 59.4073 17.7835 60.4151 18.0023 61.4067L11.3492 62.8754C11.0876 61.6903 10.8761 60.4865 10.7169 59.2662ZM12.2954 66.4148L18.7939 64.3677C19.1024 65.3472 19.4527 66.3083 19.8428 67.2489L13.5492 69.8588C13.083 68.7346 12.6642 67.5858 12.2954 66.4148ZM15.1002 73.1794L21.1411 70.0283C21.6154 70.9377 22.1285 71.8241 22.6783 72.6853L16.9355 76.3515C16.2794 75.3237 15.6668 74.2655 15.1002 73.1794ZM19.04 79.3516L24.4424 75.2001C25.0672 76.0131 25.7268 76.7983 26.4191 77.5534L21.397 82.1577C20.5717 81.2575 19.7852 80.3213 19.04 79.3516ZM23.9885 84.7492L28.5928 79.7271C29.3478 80.4193 30.133 81.079 30.9461 81.7038L26.7946 87.1062C25.8249 86.361 24.8886 85.5744 23.9885 84.7492ZM29.7947 89.2107L33.4608 83.4678C34.3221 84.0176 35.2084 84.5308 36.1178 85.0051L32.9667 91.0459C31.8807 90.4794 30.8225 89.8668 29.7947 89.2107ZM36.2874 92.597L38.8973 86.3034C39.8379 86.6935 40.799 87.0438 41.7784 87.3523L39.7314 93.8508C38.5604 93.4819 37.4116 93.0632 36.2874 92.597ZM43.2708 94.7969L44.7395 88.1438C45.731 88.3627 46.7389 88.5399 47.7613 88.6732L46.88 95.4293C45.6597 95.2701 44.4559 95.0585 43.2708 94.7969ZM54.2002 11.8151L53.9077 18.6221C53.397 18.6002 52.8831 18.5891 52.3661 18.5891C51.8492 18.5891 51.3352 18.6002 50.8245 18.6221L50.5321 11.8151C51.1402 11.789 51.7516 11.7758 52.3661 11.7758C52.9806 11.7758 53.5921 11.789 54.2002 11.8151ZM46.88 12.1308L47.7613 18.8869C46.7389 19.0202 45.7311 19.1974 44.7395 19.4162L43.2708 12.7632C44.4559 12.5016 45.6597 12.29 46.88 12.1308ZM39.7314 13.7093L41.7784 20.2078C40.799 20.5163 39.8379 20.8666 38.8973 21.2567L36.2874 14.9631C37.4116 14.4969 38.5604 14.0781 39.7314 13.7093ZM32.9667 16.5142L36.1178 22.555C35.2084 23.0293 34.3221 23.5424 33.4609 24.0922L29.7947 18.3494C30.8225 17.6933 31.8807 17.0807 32.9667 16.5142ZM26.7946 20.4539L30.9461 25.8563C30.133 26.4811 29.3478 27.1407 28.5928 27.833L23.9885 22.8109C24.8886 21.9856 25.8249 21.1991 26.7946 20.4539ZM21.397 25.4024L26.4191 30.0067C25.7268 30.7617 25.0672 31.5469 24.4424 32.36L19.04 28.2085C19.7852 27.2388 20.5717 26.3025 21.397 25.4024ZM16.9355 31.2086L22.6783 34.8748C22.1285 35.736 21.6154 36.6224 21.1411 37.5317L15.1002 34.3806C15.6668 33.2946 16.2794 32.2364 16.9355 31.2086ZM13.5492 37.7013L19.8428 40.3112C19.4527 41.2518 19.1024 42.2129 18.7939 43.1923L12.2954 41.1453C12.6642 39.9743 13.083 38.8255 13.5492 37.7013ZM11.3492 44.6847L18.0023 46.1534C17.7834 47.145 17.6063 48.1528 17.473 49.1752L10.7169 48.2939C10.8761 47.0736 11.0876 45.8698 11.3492 44.6847Z" fill="white"/>
</svg>
