<svg width="14" height="12" viewBox="0 0 14 12" fill="none" xmlns="http://www.w3.org/2000/svg">
<path d="M9.30138 6.38359C7.76556 6.38359 6.52055 5.13857 6.52055 3.60276C6.52055 2.06697 7.76556 0.82193 9.30138 0.82193C10.8372 0.82193 12.0822 2.06695 12.0822 3.60276C12.0822 5.13857 10.8372 6.38359 9.30138 6.38359ZM7.98448 4.70197C8.11099 5.12023 8.65289 5.43466 9.30234 5.43466C9.95178 5.43466 10.4937 5.12023 10.6202 4.70197H7.98448ZM0 7.53818V8.26776C0 8.37589 0.079608 8.50157 0.178409 8.54554C0.561281 8.71589 1.60563 9.06461 3.73972 9.06461C3.84195 9.06461 3.9394 9.06315 4.03667 9.06157C4.13037 7.51603 5.30293 6.2432 6.85245 6.03357C6.51885 5.69935 6.0773 5.47279 5.58492 5.41647C5.55265 5.41279 5.50479 5.4266 5.47848 5.44563C4.98876 5.80019 4.38921 6.01179 3.73972 6.01179C3.09025 6.01179 2.4907 5.80019 2.00097 5.44563C1.97466 5.42658 1.92681 5.41276 1.89453 5.41647C0.832405 5.53794 0 6.44492 0 7.53818ZM4.60275 9.26029V10.1769C4.60275 10.3128 4.70276 10.4707 4.82689 10.5259C5.30794 10.7399 6.62008 11.1781 9.30138 11.1781C11.9827 11.1781 13.2948 10.7399 13.7759 10.5259C13.9 10.4707 14 10.3128 14 10.1769V9.26031C14 7.88669 12.9542 6.74716 11.6197 6.59453C11.5791 6.58988 11.519 6.60727 11.4859 6.63122C10.8707 7.07663 10.1174 7.34252 9.30138 7.34252C8.4854 7.34252 7.73209 7.07663 7.11678 6.63122C7.08373 6.60727 7.02358 6.58988 6.98305 6.59453C5.64857 6.74718 4.60275 7.88669 4.60275 9.26029ZM3.73972 0.821953C4.96211 0.821953 5.95304 1.81289 5.95304 3.03526C5.95304 4.25765 4.96211 5.24854 3.73972 5.24854C2.51735 5.24854 1.52641 4.2576 1.52641 3.03526C1.52643 1.81286 2.51735 0.821953 3.73972 0.821953ZM3.73972 4.47254C4.27279 4.47254 4.71754 4.21446 4.82138 3.87116H2.65808C2.76189 4.21448 3.20669 4.47254 3.73972 4.47254Z" fill="#27AE60"/>
</svg>
